<svg xmlns="http://www.w3.org/2000/svg" width="72" height="72" viewBox="0 0 72 72">
    <g fill="none" fill-rule="evenodd">
        <g fill-rule="nonzero">
            <g>
                <g>
                    <path fill="#1C1C9B" d="M36 0C16.15 0 0 16.15 0 36s16.15 36 36 36c19.851 0 36-16.15 36-36S55.851 0 36 0zm0 66.098C19.404 66.098 5.902 52.597 5.902 36 5.902 19.404 19.404 5.902 36 5.902 52.597 5.902 66.1 19.404 66.1 36c0 16.597-13.502 30.098-30.099 30.098z" transform="translate(-132.000000, -110.000000) translate(132.000000, 110.000000) translate(0.000000, 0.000236)"/>
                    <path fill="#FC4E13" d="M51.574 22.183L30.199 43.558l-9.772-9.773c-1.153-1.152-3.021-1.152-4.174 0-1.152 1.153-1.152 3.02 0 4.173l11.86 11.86c.576.576 1.331.864 2.086.864.755 0 1.51-.288 2.087-.864l23.461-23.462c1.152-1.152 1.152-3.02 0-4.173-1.152-1.152-3.02-1.152-4.173 0z" transform="translate(-132.000000, -110.000000) translate(132.000000, 110.000000) translate(0.000000, 0.000236)"/>
                </g>
            </g>
        </g>
    </g>
</svg>
