<svg width="155" height="38" xmlns="http://www.w3.org/2000/svg">
    <g fill-rule="nonzero" fill="none">
        <path d="M154.583 17.297c-.456 1.434-.599 2.935-.925 4.402-.534 2.398-.82 4.849-1.576 7.207-1.725 5.333-5.607 8.236-11.182 8.373a20.07 20.07 0 0 1-4.428-.281c-4.194-.852-5.718-3.597-5.582-7.456.111-3.158.984-6.192 1.57-9.271 1.192-6.244 2.455-12.448 3.653-18.705.13-.655.352-.898 1.042-.872a79.65 79.65 0 0 0 4.846 0c.651 0 .781.158.651.8-.619 2.994-1.198 5.995-1.79 9.002a7.203 7.203 0 0 0-.066.747 9.33 9.33 0 0 1 4.168-2.031c1.788-.401 3.649-.327 5.399.216a5.589 5.589 0 0 1 3.908 4.278c.078.308 0 .655.286.924l.026 2.667zm-6.851 1.225c.052-2.444-.964-3.512-2.996-3.584-3.054-.105-4.982 1.395-5.614 4.422-.397 1.92-.742 3.853-1.133 5.772a15.056 15.056 0 0 0-.443 3.571 2.538 2.538 0 0 0 2.11 2.62c2.768.689 5.126-.654 6.161-3.459.393-1.218.683-2.467.866-3.734.372-1.992.893-3.97 1.049-5.608zM119.05 34.54a11.648 11.648 0 0 1-5.587 2.674c-.41.059-.873-.118-1.238.21h-.469c-.45-.322-.983-.164-1.478-.256-3.256-.59-5.171-2.719-5.406-6.047-.175-2.464.359-4.842.821-7.207.925-4.691 1.863-9.382 2.768-14.08.098-.51.267-.694.794-.655 1.737.035 3.456.035 5.158 0 .548 0 .613.131.508.655a3710.028 3710.028 0 0 0-3.256 16.55 6.537 6.537 0 0 0-.104 2.797 2.612 2.612 0 0 0 2.266 2.162c3.113.485 5.503-1.015 6.207-4.1.814-3.591 1.465-7.208 2.182-10.837l1.302-6.624c.078-.413.208-.616.697-.603 1.797.033 3.595.04 5.392 0 .652 0 .652.249.547.747-.833 4.18-1.66 8.36-2.48 12.54-.926 4.69-1.857 9.382-2.762 14.08-.091.497-.28.655-.756.622h-4.559c-.455 0-.65-.072-.573-.603.069-.624.102-1.252.098-1.88.078-.053.11-.112 0-.17-.11-.06-.033 0-.072.026z" fill="#FC4E13"/>
        <path d="M0 36.323c.398-1.054.659-2.155.775-3.276 1.472-7.495 2.898-14.964 4.396-22.42.41-2.553 1.6-4.914 3.406-6.755 2.071-2.005 4.67-2.804 7.437-3.053C19.961.465 23.921.655 27.88.694c.508 0 .47.263.404.597-.306 1.592-.651 3.184-.912 4.782-.084.518-.416.367-.69.367H18.17c-.86-.004-1.718.084-2.56.262a4.726 4.726 0 0 0-3.724 3.407 50.499 50.499 0 0 0-1.114 5.124c-.13.603.254.485.566.485h11.489c.56 0 .82 0 .65.727-.37 1.52-.65 3.066-.91 4.586-.092.55-.3.655-.802.655H10.283c-.612 0-.814.164-.93.786-.893 4.678-1.85 9.337-2.736 14.015-.117.655-.384.714-.918.714-1.902 0-3.797-.105-5.692.065L0 36.323zM36.418 0c2.325.943 2.938 2.988 1.544 5.156a4.475 4.475 0 0 1-4.748 1.913 2.617 2.617 0 0 1-2.038-2.529A4.4 4.4 0 0 1 34.302.17c.137-.046.319 0 .397-.17h1.72z" fill="#1C1C9B"/>
        <path d="M88.161 11.977c-.807 0-1.622-.053-2.423 0-.8.052-.814-.184-.69-.84.089-.488.133-.983.13-1.48a2.716 2.716 0 0 0-2.181-2.87 10.768 10.768 0 0 0-5.784.046 4.572 4.572 0 0 0-3.158 3.1 43.318 43.318 0 0 0-1.303 5.817c-.755 3.768-1.472 7.541-2.188 11.315-.073.433-.1.872-.078 1.31a2.696 2.696 0 0 0 2.162 2.72c1.823.477 3.74.452 5.549-.073 2.214-.615 3.302-2.266 3.777-4.376.163-.708.463-.845 1.094-.826 1.668.04 3.335 0 5.002 0 .313 0 .651-.059.54.472-.853 3.931-2.468 7.338-6.226 9.284a17.049 17.049 0 0 1-7.255 1.618 22.758 22.758 0 0 1-5.21-.327c-4.63-.833-6.747-3.768-6.095-8.55.534-3.886 1.439-7.705 2.188-11.558.495-2.535.879-5.097 1.608-7.593 1.303-4.547 4.266-7.305 8.949-8.118a24.816 24.816 0 0 1 9.456.053c4.155.865 6.102 3.485 5.848 7.698-.052.865-.202 1.717-.293 2.575-.039.432-.202.655-.684.616-.911-.04-1.823-.013-2.735-.013z" fill="#FC4E13"/>
        <path d="M46.89 11.99a10.39 10.39 0 0 1 6.826-2.968c2.442-.072 4.767.36 6.31 2.542 1.349 1.9 1.46 4.114 1.166 6.329-.547 4.154-1.556 8.216-2.312 12.33-.377 2.057-.814 4.108-1.191 6.159-.098.537-.248.792-.873.773-1.693-.06-3.387-.04-5.08 0-.52 0-.651-.098-.54-.655a1887.101 1887.101 0 0 0 3.256-16.7c.15-.693.202-1.403.156-2.11a2.753 2.753 0 0 0-.833-1.984 2.72 2.72 0 0 0-2-.768c-3.1-.177-5.21 1.376-5.816 4.488a993.143 993.143 0 0 0-3.256 16.694c-.143.773-.365 1.08-1.211 1.041-1.817-.085-3.64 0-5.503 0 1.23-6.237 2.442-12.395 3.653-18.548.554-2.823 1.12-5.64 1.635-8.47.13-.715.365-.99 1.133-.944 1.302.068 2.606.068 3.908 0 .696 0 .84.222.749.838-.092.616-.13 1.173-.176 1.953z" fill="#1C1C9B"/>
        <path d="M91.906 31.147c0-2.667.651-5.241 1.179-7.816 1.42-7.312 2.872-14.624 4.285-21.935.117-.616.326-.8.944-.78a84.65 84.65 0 0 0 4.995 0c.697 0 .69.255.587.766-1.511 7.648-3.016 15.292-4.514 22.931a135.18 135.18 0 0 0-.65 3.545c-.049.23-.077.465-.086.701-.065 1.54.482 2.175 2.013 2.26.553 0 .69.151.56.734-.378 1.684-.69 3.38-1.003 5.078-.059.327-.137.517-.521.517a15.31 15.31 0 0 1-4.624-.602 4.333 4.333 0 0 1-3.146-4.135c-.052-.425-.02-.845-.02-1.264z" fill="#FC4E13"/>
        <path d="M28.206 37.194h-2.605c-.501 0-.6-.098-.495-.61.71-3.504 1.38-7.023 2.071-10.534 1.016-5.176 2.052-10.346 3.048-15.528.104-.537.267-.734.834-.72 1.719.039 3.438 0 5.151 0 .521 0 .651.091.528.655-1.39 7.075-2.781 14.15-4.175 21.22-.306 1.566-.651 3.126-.892 4.698-.11.72-.43.872-1.075.832-.775-.052-1.589-.013-2.39-.013z" fill="#1C1C9B"/>
    </g>
</svg>
