<svg xmlns="http://www.w3.org/2000/svg" width="24" height="24" viewBox="0 0 24 24">
    <g fill="none" fill-rule="evenodd">
        <g>
            <g transform="translate(-42.000000, -56.000000) translate(42.000000, 56.000000)">
                <path d="M0 0L24 0 24 24 0 24z"/>
                <path fill-rule="nonzero" stroke="#FC4E13" stroke-width="2" d="M12 5c-3.864 0-7 3.136-7 7s3.136 7 7 7 7-3.136 7-7-3.136-7-7-7z"/>
                <path fill="#FC4E13" d="M12 10c.552 0 1 .448 1 1v5c0 .552-.448 1-1 1s-1-.448-1-1v-5c0-.552.448-1 1-1z"/>
                <circle cx="12" cy="8" r="1" fill="#FC4E13"/>
            </g>
        </g>
    </g>
</svg>
